REM GENRE "Classic Rock"
REM DATE 1971
REM DISCID 890A4C0B
REM COMMENT "ExactAudioCopy v0.95b2"
PERFORMER "Jethro Tull"
TITLE "Aqualung [gold disc]"
FILE "Jethro Tull 01 Aqualung.wav" WAVE
  TRACK 01 AUDIO
    TITLE "Aqualung"
    PERFORMER "Jethro Tull"
    INDEX 01 00:00:00
  TRACK 02 AUDIO
    TITLE "Cross-Eyed Mary"
    PERFORMER "Jethro Tull"
    INDEX 00 06:36:15
FILE "Jethro Tull 02 Cross-Eyed Mary.wav" WAVE
    INDEX 01 00:00:00
  TRACK 03 AUDIO
    TITLE "Cheap Day Return"
    PERFORMER "Jethro Tull"
    INDEX 00 04:09:57
FILE "Jethro Tull 03 Cheap Day Return.wav" WAVE
    INDEX 01 00:00:00
  TRACK 04 AUDIO
    TITLE "Mother Goose"
    PERFORMER "Jethro Tull"
    INDEX 00 01:23:25
FILE "Jethro Tull 04 Mother Goose.wav" WAVE
    INDEX 01 00:00:00
  TRACK 05 AUDIO
    TITLE "Wond'ring Aloud"
    PERFORMER "Jethro Tull"
    INDEX 00 03:54:35
FILE "Jethro Tull 05 Wond'ring Aloud.wav" WAVE
    INDEX 01 00:00:00
  TRACK 06 AUDIO
    TITLE "Up To Me"
    PERFORMER "Jethro Tull"
    INDEX 00 01:55:65
FILE "Jethro Tull 06 Up To Me.wav" WAVE
    INDEX 01 00:00:00
  TRACK 07 AUDIO
    TITLE "My God"
    PERFORMER "Jethro Tull"
    INDEX 00 03:21:28
FILE "Jethro Tull 07 My God.wav" WAVE
    INDEX 01 00:00:00
  TRACK 08 AUDIO
    TITLE "Hymn 43"
    PERFORMER "Jethro Tull"
    INDEX 00 07:12:42
FILE "Jethro Tull 08 Hymn 43.wav" WAVE
    INDEX 01 00:00:00
  TRACK 09 AUDIO
    TITLE "Slipstream"
    PERFORMER "Jethro Tull"
    INDEX 00 03:19:38
FILE "Jethro Tull 09 Slipstream.wav" WAVE
    INDEX 01 00:00:00
  TRACK 10 AUDIO
    TITLE "Locomotive Breath"
    PERFORMER "Jethro Tull"
    INDEX 00 01:13:67
FILE "Jethro Tull 10 Locomotive Breath.wav" WAVE
    INDEX 01 00:00:00
  TRACK 11 AUDIO
    TITLE "Wind Up"
    PERFORMER "Jethro Tull"
    INDEX 00 04:24:43
FILE "Jethro Tull 11 Wind Up.wav" WAVE
    INDEX 01 00:00:00
